<svg xmlns="http://www.w3.org/2000/svg" width="360" height="120" viewBox="0 0 360 120" role="img" aria-labelledby="title desc">
  <title id="title">IT Asset Management Logo</title>
  <desc id="desc">Abstract shield with nodes representing connected assets and bold ITAMS text</desc>
  <defs>
    <linearGradient id="grad" x1="0%" y1="0%" x2="100%" y2="100%">
      <stop offset="0%" stop-color="#1e3a8a"/>
      <stop offset="100%" stop-color="#0ea5e9"/>
    </linearGradient>
    <linearGradient id="node" x1="0%" y1="0%" x2="100%" y2="0%">
      <stop offset="0%" stop-color="#38bdf8"/>
      <stop offset="100%" stop-color="#1d4ed8"/>
    </linearGradient>
  </defs>
  <rect width="360" height="120" rx="14" fill="#0b1224"/>
  <g transform="translate(24 16)">
    <path d="M64 0c-18 0-32 14-32 32v18c0 22 14 42 32 54 18-12 32-32 32-54V32C96 14 82 0 64 0Z" fill="url(#grad)"/>
    <circle cx="64" cy="26" r="9" fill="#0b1224" stroke="url(#node)" stroke-width="3"/>
    <circle cx="40" cy="54" r="8" fill="#0b1224" stroke="#38bdf8" stroke-width="3"/>
    <circle cx="88" cy="54" r="8" fill="#0b1224" stroke="#38bdf8" stroke-width="3"/>
    <circle cx="64" cy="74" r="9" fill="#0b1224" stroke="#38bdf8" stroke-width="3"/>
    <line x1="64" y1="35" x2="40" y2="54" stroke="#38bdf8" stroke-width="3" stroke-linecap="round"/>
    <line x1="64" y1="35" x2="88" y2="54" stroke="#38bdf8" stroke-width="3" stroke-linecap="round"/>
    <line x1="40" y1="54" x2="64" y2="74" stroke="#38bdf8" stroke-width="3" stroke-linecap="round"/>
    <line x1="88" y1="54" x2="64" y2="74" stroke="#38bdf8" stroke-width="3" stroke-linecap="round"/>
  </g>
  <text x="150" y="55" fill="#e2e8f0" font-family="'Segoe UI', 'Helvetica Neue', Arial, sans-serif" font-size="36" font-weight="700">ITAMS</text>
  <text x="150" y="87" fill="#94a3b8" font-family="'Segoe UI', 'Helvetica Neue', Arial, sans-serif" font-size="16" font-weight="500">IT Asset Management System</text>
</svg>
